<svg width="323" height="96" viewBox="0 0 323 96" fill="none" xmlns="http://www.w3.org/2000/svg">
<path d="M57.888 2.304C59.808 2.304 61.76 2.144 63.744 1.82401C65.728 1.44 67.488 0.928001 69.024 0.288002C68.96 4.384 67.904 7.456 65.856 9.504C63.872 11.488 60.928 12.48 57.024 12.48C55.168 12.48 53.088 12.32 50.784 12C48.544 11.68 45.664 11.136 42.144 10.368L28.896 72H15.072L28.704 8.448H27.552C21.344 8.448 16.768 10.048 13.824 13.248C10.944 16.384 9.50399 21.248 9.50399 27.84C9.50399 29.056 9.56799 30.112 9.69599 31.008C9.88799 31.904 10.176 32.768 10.56 33.6C10.688 33.856 10.752 34.048 10.752 34.176C10.816 34.24 10.848 34.304 10.848 34.368C7.26399 34.368 4.63999 33.632 2.97599 32.16C1.37599 30.624 0.575989 28.256 0.575989 25.056C0.575989 17.44 3.42399 11.392 9.11999 6.912C14.88 2.368 22.944 0.0960045 33.312 0.0960045C35.424 0.0960045 37.44 0.192003 39.36 0.384001C41.344 0.512003 43.872 0.800003 46.944 1.248C49.632 1.696 51.712 1.984 53.184 2.112C54.72 2.24 56.288 2.304 57.888 2.304Z" fill="white"/>
<path d="M44.8747 57.216C44.8747 53.568 45.4507 49.696 46.6027 45.6C47.8187 41.504 49.4507 37.856 51.4987 34.656C53.8667 30.88 56.7147 28.032 60.0427 26.112C63.3707 24.128 67.0827 23.136 71.1787 23.136C75.2747 23.136 78.3467 24.416 80.3947 26.976C82.4427 29.536 83.4667 33.376 83.4667 38.496C83.5947 38.56 83.7227 38.624 83.8507 38.688C84.0427 38.688 84.2667 38.688 84.5227 38.688C86.5067 38.688 88.8747 38.144 91.6267 37.056C94.3787 35.968 96.9387 34.592 99.3067 32.928L100.171 35.52C98.3787 37.44 95.9787 39.104 92.9707 40.512C90.0267 41.92 86.7627 42.912 83.1787 43.488C82.4107 52.128 79.9147 59.104 75.6907 64.416C71.4667 69.728 66.3147 72.384 60.2347 72.384C55.2427 72.384 51.4347 71.104 48.8107 68.544C46.1867 65.984 44.8747 62.208 44.8747 57.216ZM71.9467 28.992C68.8747 28.992 65.9627 32.096 63.2107 38.304C60.5227 44.512 59.1787 50.4 59.1787 55.968C59.1787 58.976 59.4987 61.024 60.1387 62.112C60.8427 63.2 62.1547 63.744 64.0747 63.744C66.4427 63.744 68.6827 61.824 70.7947 57.984C72.9707 54.144 74.4427 49.408 75.2107 43.776C74.3147 43.584 73.6427 43.168 73.1947 42.528C72.8107 41.824 72.6187 40.896 72.6187 39.744C72.6187 38.528 72.8747 37.472 73.3867 36.576C73.8987 35.68 74.6347 35.008 75.5947 34.56C75.4667 32.512 75.1147 31.072 74.5387 30.24C74.0267 29.408 73.1627 28.992 71.9467 28.992Z" fill="white"/>
<path d="M111.254 72H97.4302L110.486 10.944L124.694 9.024L113.174 62.88C114.07 63.52 114.966 64 115.862 64.32C116.758 64.64 117.686 64.8 118.646 64.8C123.83 64.8 128.182 60.544 131.702 52.032C135.286 43.456 137.078 33.632 137.078 22.56C137.078 16.544 135.894 12.032 133.526 9.024C131.158 5.952 127.67 4.416 123.062 4.416C115.574 4.416 109.494 6.56 104.822 10.848C100.214 15.072 97.9102 20.704 97.9102 27.744C97.9102 28.96 97.9742 30.016 98.1022 30.912C98.2942 31.808 98.5822 32.672 98.9662 33.504C99.0942 33.76 99.1582 33.952 99.1582 34.08C99.2222 34.144 99.2542 34.208 99.2542 34.272C95.7982 34.272 93.2062 33.536 91.4782 32.064C89.8142 30.592 88.9822 28.352 88.9822 25.344C88.9822 21.824 90.1022 18.4 92.3422 15.072C94.6462 11.68 97.7822 8.736 101.75 6.24C105.014 4.256 108.598 2.72 112.502 1.632C116.47 0.544001 120.534 0 124.694 0C132.886 0 139.19 2.464 143.606 7.392C148.086 12.256 150.326 19.008 150.326 27.648C150.326 32.32 149.782 37.056 148.694 41.856C147.606 46.656 146.07 51.136 144.086 55.296C141.462 60.928 138.358 65.344 134.774 68.544C131.19 71.68 127.51 73.248 123.734 73.248C121.814 73.248 119.862 72.832 117.878 72C115.958 71.104 114.006 69.824 112.022 68.16L111.254 72Z" fill="white"/>
<path d="M150.718 57.216C150.718 53.568 151.294 49.696 152.446 45.6C153.662 41.504 155.294 37.856 157.342 34.656C159.71 30.88 162.558 28.032 165.886 26.112C169.214 24.128 172.926 23.136 177.022 23.136C181.118 23.136 184.19 24.416 186.238 26.976C188.286 29.536 189.31 33.376 189.31 38.496C189.438 38.56 189.566 38.624 189.694 38.688C189.886 38.688 190.11 38.688 190.366 38.688C192.35 38.688 194.718 38.144 197.47 37.056C200.222 35.968 202.782 34.592 205.15 32.928L206.014 35.52C204.222 37.44 201.822 39.104 198.814 40.512C195.87 41.92 192.606 42.912 189.022 43.488C188.254 52.128 185.758 59.104 181.534 64.416C177.31 69.728 172.158 72.384 166.078 72.384C161.086 72.384 157.278 71.104 154.654 68.544C152.03 65.984 150.718 62.208 150.718 57.216ZM177.79 28.992C174.718 28.992 171.806 32.096 169.054 38.304C166.366 44.512 165.022 50.4 165.022 55.968C165.022 58.976 165.342 61.024 165.982 62.112C166.686 63.2 167.998 63.744 169.918 63.744C172.286 63.744 174.526 61.824 176.638 57.984C178.814 54.144 180.286 49.408 181.054 43.776C180.158 43.584 179.486 43.168 179.038 42.528C178.654 41.824 178.462 40.896 178.462 39.744C178.462 38.528 178.718 37.472 179.23 36.576C179.742 35.68 180.478 35.008 181.438 34.56C181.31 32.512 180.958 31.072 180.382 30.24C179.87 29.408 179.006 28.992 177.79 28.992Z" fill="white"/>
<path d="M207.018 7.68C210.282 5.568 213.77 3.936 217.482 2.784C221.258 1.568 224.938 0.960005 228.522 0.960005C228.97 0.960005 229.45 0.992004 229.962 1.056C230.538 1.056 231.338 1.088 232.362 1.152L217.578 70.08C219.05 70.4 220.618 70.944 222.282 71.712C224.01 72.416 226.602 73.696 230.058 75.552C235.242 78.368 239.21 80.224 241.962 81.12C244.714 82.016 247.338 82.464 249.834 82.464C251.306 82.464 252.682 82.336 253.962 82.08C255.306 81.824 256.618 81.44 257.898 80.928C257.386 85.536 256.234 89.184 254.442 91.872C252.65 94.624 250.474 96 247.914 96C245.61 96 243.146 95.36 240.522 94.08C237.962 92.864 234.058 90.176 228.81 86.016C222.794 81.152 218.122 77.952 214.794 76.416C211.466 74.944 208.234 74.208 205.098 74.208C204.522 74.208 204.074 74.208 203.754 74.208C203.434 74.208 203.146 74.24 202.89 74.304L217.194 7.776C212.842 9.568 209.514 12.256 207.21 15.84C204.906 19.424 203.754 23.712 203.754 28.704C203.754 29.92 203.818 30.976 203.946 31.872C204.138 32.768 204.426 33.632 204.81 34.464C204.938 34.72 205.002 34.912 205.002 35.04C205.066 35.104 205.098 35.168 205.098 35.232C201.514 35.232 198.89 34.496 197.226 33.024C195.626 31.488 194.826 29.12 194.826 25.92C194.826 22.72 195.882 19.52 197.994 16.32C200.17 13.12 203.178 10.24 207.018 7.68Z" fill="white"/>
<path d="M254.337 11.232C254.337 13.344 253.569 15.136 252.033 16.608C250.561 18.08 248.769 18.816 246.657 18.816C244.545 18.816 242.753 18.08 241.281 16.608C239.809 15.136 239.073 13.344 239.073 11.232C239.073 9.12 239.809 7.328 241.281 5.856C242.753 4.32 244.545 3.552 246.657 3.552C248.769 3.552 250.561 4.32 252.033 5.856C253.569 7.328 254.337 9.12 254.337 11.232ZM229.857 61.056C229.857 60.224 229.921 59.296 230.049 58.272C230.177 57.184 230.369 56.032 230.625 54.816L237.153 24H250.977L244.065 56.64C243.937 57.216 243.841 57.76 243.777 58.272C243.713 58.72 243.681 59.2 243.681 59.712C243.681 60.992 243.969 61.92 244.545 62.496C245.185 63.008 246.209 63.264 247.617 63.264C249.409 63.264 251.105 62.496 252.705 60.96C254.305 59.36 255.489 57.312 256.257 54.816H260.289C258.241 60.64 255.489 65.056 252.033 68.064C248.577 71.072 244.609 72.576 240.129 72.576C236.929 72.576 234.401 71.584 232.545 69.6C230.753 67.552 229.857 64.704 229.857 61.056Z" fill="white"/>
<path d="M286.363 55.968C286.363 56.736 286.331 57.408 286.267 57.984C286.203 58.56 286.107 59.104 285.979 59.616C287.259 58.848 288.507 58.048 289.723 57.216C290.939 56.384 291.995 55.584 292.891 54.816H296.923C294.939 57.12 292.731 59.264 290.299 61.248C287.931 63.168 285.243 65.024 282.235 66.816C280.507 68.672 278.299 70.112 275.611 71.136C272.923 72.096 270.107 72.576 267.163 72.576C262.875 72.576 259.451 71.424 256.891 69.12C254.395 66.752 253.147 63.808 253.147 60.288C253.147 58.304 253.627 56.512 254.587 54.912C255.547 53.248 256.763 52.064 258.235 51.36C260.411 47.456 262.427 43.296 264.283 38.88C266.203 34.4 268.123 29.088 270.043 22.944L284.251 21.024C284.443 25.824 284.667 30.208 284.923 34.176C285.179 38.144 285.499 42.464 285.883 47.136C286.075 49.824 286.203 51.712 286.267 52.8C286.331 53.888 286.363 54.944 286.363 55.968ZM270.619 33.312C269.787 35.936 268.763 38.688 267.547 41.568C266.395 44.384 264.827 47.68 262.843 51.456C263.547 51.776 264.091 52.224 264.475 52.8C264.859 53.376 265.051 54.048 265.051 54.816C265.051 56.032 264.635 57.12 263.803 58.08C262.971 59.04 261.979 59.52 260.827 59.52C260.187 59.52 259.643 59.424 259.195 59.232C258.747 58.976 258.427 58.656 258.235 58.272C258.235 60.64 258.683 62.368 259.579 63.456C260.539 64.48 262.043 64.992 264.091 64.992C266.715 64.992 268.763 64.224 270.235 62.688C271.707 61.152 272.443 58.944 272.443 56.064C272.443 55.168 272.411 54.272 272.347 53.376C272.283 52.416 272.155 50.848 271.963 48.672C271.643 45.664 271.387 43.008 271.195 40.704C271.003 38.4 270.811 35.936 270.619 33.312Z" fill="white"/>
<path d="M296.235 24H299.403L302.283 10.752L316.491 8.832L313.227 24H318.987L318.219 27.84H312.459L306.315 56.64C306.187 57.216 306.091 57.76 306.027 58.272C305.963 58.72 305.931 59.2 305.931 59.712C305.931 60.992 306.219 61.92 306.795 62.496C307.435 63.008 308.459 63.264 309.867 63.264C311.659 63.264 313.355 62.496 314.955 60.96C316.555 59.36 317.739 57.312 318.507 54.816H322.539C320.491 60.64 317.739 65.056 314.283 68.064C310.827 71.072 306.859 72.576 302.379 72.576C299.179 72.576 296.651 71.584 294.795 69.6C293.003 67.552 292.107 64.704 292.107 61.056C292.107 60.224 292.171 59.296 292.299 58.272C292.427 57.184 292.619 56.032 292.875 54.816L298.635 27.84H295.467L296.235 24Z" fill="white"/>
</svg>
